<?xml version="1.0" standalone="no"?>
<!DOCTYPE svg PUBLIC "-//W3C//DTD SVG 20010904//EN"
 "http://www.w3.org/TR/2001/REC-SVG-20010904/DTD/svg10.dtd">
<svg version="1.0" xmlns="http://www.w3.org/2000/svg"
 width="260.000000pt" height="260.000000pt" viewBox="0 0 260.000000 260.000000"
 preserveAspectRatio="xMidYMid meet">
<metadata>
Created by potrace 1.14, written by Peter Selinger 2001-2017
</metadata>
<g transform="translate(0.000000,260.000000) scale(0.100000,-0.100000)"
fill="#000000" stroke="none">
<path d="M855 2105 c-44 -7 -96 -15 -115 -19 -19 -3 -56 -8 -82 -12 l-48 -7 0
-178 0 -179 -80 0 -80 0 0 -150 0 -150 80 0 80 0 1 -295 c1 -162 2 -298 3
-302 1 -5 5 -26 10 -47 22 -110 101 -198 213 -236 79 -26 268 -36 364 -18 l56
11 -8 41 c-4 23 -10 64 -13 91 -4 28 -11 78 -17 111 l-11 62 -31 -7 c-81 -18
-153 3 -182 52 -17 29 -19 55 -20 285 l-1 252 139 0 c127 0 138 1 133 18 -2 9
-8 37 -11 62 -4 25 -9 52 -10 60 -1 8 -6 40 -10 70 -12 96 -3 90 -126 90 -80
0 -109 3 -110 13 -1 6 -2 98 -3 202 -1 220 11 201 -121 180z"/>
<path d="M2064 1731 c-91 -22 -196 -105 -251 -199 -15 -25 -28 -41 -30 -36 -2
6 -11 55 -21 109 l-17 100 -161 3 -161 2 0 -595 0 -595 183 0 184 0 0 332 0
333 43 38 c58 52 187 113 272 128 39 7 74 12 78 11 5 -2 6 17 2 40 -4 24 -9
57 -11 73 -2 17 -6 41 -9 55 -3 14 -7 41 -10 60 -25 158 -24 157 -91 141z"/>
</g>
</svg>
